<svg width="162" height="26" viewBox="0 0 162 26" fill="none" xmlns="http://www.w3.org/2000/svg">
<path d="M13 0L15.9187 8.98278H25.3637L17.7225 14.5344L20.6412 23.5172L13 17.9656L5.35879 23.5172L8.27747 14.5344L0.636266 8.98278H10.0813L13 0Z" fill="#D70359"/>
<path d="M47 0L49.9187 8.98278H59.3637L51.7225 14.5344L54.6412 23.5172L47 17.9656L39.3588 23.5172L42.2775 14.5344L34.6363 8.98278H44.0813L47 0Z" fill="#D70359"/>
<path d="M81 0L83.9187 8.98278H93.3637L85.7225 14.5344L88.6412 23.5172L81 17.9656L73.3588 23.5172L76.2775 14.5344L68.6363 8.98278H78.0813L81 0Z" fill="#D70359"/>
<path d="M115 0L117.919 8.98278H127.364L119.723 14.5344L122.641 23.5172L115 17.9656L107.359 23.5172L110.277 14.5344L102.636 8.98278H112.081L115 0Z" fill="#D70359"/>
<path d="M149 0L151.919 8.98278H161.364L153.723 14.5344L156.641 23.5172L149 17.9656L141.359 23.5172L144.277 14.5344L136.636 8.98278H146.081L149 0Z" fill="#D70359"/>
</svg>
