<svg width="474" height="95" viewBox="0 0 474 95" fill="none" xmlns="http://www.w3.org/2000/svg">
<path d="M66.647 43.672L114.391 95H71.127L37.335 57.112V95H0.855V0.279999H37.335V31.512L68.951 0.279999H112.599L66.647 43.672ZM208.658 59.928H152.21V69.784L219.41 69.4V95H115.73V0.279999H219.41L219.538 25.88H152.21V34.968H208.658V59.928ZM263.085 95H226.605V0.279999L263.085 95ZM352.045 95H315.565H352.045ZM315.565 53.656V0.279999H352.045V95H315.565L263.085 41.624V95H226.605V0.279999H263.085L315.565 53.656ZM359.06 29.72V0.279999H473.108L359.06 29.72ZM473.108 0.279999V29.72H434.58V95H398.1V29.72H359.06V0.279999H473.108Z" fill="white"/>
</svg>
